# xmcd CD database file
#
# Track frame offsets:
#	150
#	18900
#	42975
#
# Disc length: 820 seconds
#
# Revision: 0
# Processed by: cddbd v1.5.1PL2 Copyright (c) Steve Scherf et al.
# Submitted via: CDex 1.51
#
DISCID=1a033203
DTITLE=尾藤桃子 - Ru Tu True
DYEAR=1998
DGENRE=JPop
TTITLE0=Ru Tu True
TTITLE1=緩し合えるように
TTITLE2=Ru Tu True （オリジナル・カラオケ）
EXTD=YEAR: 1998
EXTT0=
EXTT1=
EXTT2=
PLAYORDER=
